<?xml version="1.0" encoding="UTF-8"?>
<!DOCTYPE svg PUBLIC "-//W3C//DTD SVG 1.1//EN" "http://www.w3.org/Graphics/SVG/1.1/DTD/svg11.dtd">
<!-- Creator: CorelDRAW X7 -->
<svg xmlns="http://www.w3.org/2000/svg" xml:space="preserve" width="8.202mm" height="9.2604mm" version="1.1" style="shape-rendering:geometricPrecision; text-rendering:geometricPrecision; image-rendering:optimizeQuality; fill-rule:evenodd; clip-rule:evenodd"
viewBox="0 0 820 926"
 xmlns:xlink="http://www.w3.org/1999/xlink">
 <defs>
  <style type="text/css">
   <![CDATA[
    .fil0 {fill:#1AE9B6;fill-rule:nonzero}
   ]]>
  </style>
 </defs>
 <g id="Слой_x0020_1">
  <metadata id="CorelCorpID_0Corel-Layer"/>
  <path class="fil0" d="M120 421l403 0c57,0 101,-12 130,-38 29,-25 44,-62 44,-111 0,-48 -15,-85 -44,-112 -29,-27 -71,-40 -125,-40l-408 0 0 301zm-114 507l0 -913 524 0c89,0 158,22 209,66 51,44 77,105 77,181 0,79 -25,144 -74,193 -49,49 -115,73 -197,73l-425 0 0 400 -114 0 0 0z"/>
 </g>
</svg>
