<?xml version="1.0" encoding="UTF-8"?>
<!DOCTYPE svg PUBLIC "-//W3C//DTD SVG 1.1//EN" "http://www.w3.org/Graphics/SVG/1.1/DTD/svg11.dtd">
<!-- Creator: CorelDRAW X7 -->
<svg xmlns="http://www.w3.org/2000/svg" xml:space="preserve" width="73.0248mm" height="9.2604mm" version="1.1" style="shape-rendering:geometricPrecision; text-rendering:geometricPrecision; image-rendering:optimizeQuality; fill-rule:evenodd; clip-rule:evenodd"
viewBox="0 0 7302 926"
 xmlns:xlink="http://www.w3.org/1999/xlink">
 <defs>
  <style type="text/css">
   <![CDATA[
    .fil0 {fill:#171717;fill-rule:nonzero}
    .fil2 {fill:#1AE9B6;fill-rule:nonzero}
    .fil1 {fill:#1DE9B6;fill-rule:nonzero}
   ]]>
  </style>
 </defs>
 <g id="Слой_x0020_1">
  <metadata id="CorelCorpID_0Corel-Layer"/>
  <path class="fil0" d="M128 430l403 0c57,0 100,-13 130,-38 29,-25 44,-63 44,-112 0,-47 -15,-85 -44,-111 -30,-27 -71,-41 -125,-41l-408 0 0 302zm-114 506l0 -913 524 0c89,0 158,22 209,67 51,44 77,104 77,180 0,80 -25,144 -74,193 -49,49 -115,74 -197,74l-425 0 0 399 -114 0z"/>
  <path id="1" class="fil0" d="M2322 855c95,0 172,-26 231,-77 60,-50 89,-115 89,-194 0,-78 -30,-143 -89,-194 -60,-51 -137,-77 -231,-77 -93,0 -170,25 -229,77 -59,50 -89,115 -89,194 0,79 30,144 89,194 59,51 136,77 229,77zm0 103c-125,0 -229,-35 -310,-106 -81,-71 -122,-161 -122,-268 0,-108 41,-197 122,-267 81,-71 184,-106 310,-106 128,0 232,35 313,105 80,70 121,160 121,268 0,108 -41,197 -122,268 -81,71 -185,106 -312,106z"/>
  <polygon id="2" class="fil0" points="2937,936 2937,230 2995,230 3443,726 3443,230 3552,230 3552,936 3494,936 3045,442 3045,936 "/>
  <polygon id="3" class="fil0" points="4481,936 4481,228 4592,228 4592,936 "/>
  <polygon id="4" class="fil0" points="5840,936 5840,230 6502,230 6502,333 5950,333 5950,509 6313,509 6313,611 5950,611 5950,835 6533,835 6533,936 "/>
  <polygon id="5" class="fil1" points="1105,608 1105,936 995,936 995,230 1105,230 1105,504 1601,504 1601,230 1711,230 1711,936 1601,936 1601,608 "/>
  <polygon id="6" class="fil1" points="3961,936 3961,328 3663,328 3663,230 4369,230 4369,328 4071,328 4071,936 "/>
  <polygon id="7" class="fil2" points="4836,936 4836,230 4928,230 5217,643 5507,230 5598,230 5598,936 5488,936 5488,428 5217,821 4946,428 4946,936 "/>
  <polygon id="8" class="fil2" points="6690,936 6690,230 6800,230 6800,835 7325,835 7325,936 "/>
 </g>
</svg>
